<svg width="900" height="400" xmlns="http://www.w3.org/2000/svg">

 <g>
  <title>Layer 1</title>
  <rect id="svg_1" fill-opacity="0.8" fill="#333" height="400" width="900" y="0" x="0"/>
  <line transform="rotate(115.927, 320, 140)" id="svg_2" stroke-linecap="round" stroke-opacity="0.8" stroke-width="20" stroke="#FFF" y2="280" x2="320" y1="0" x1="320"/>
  <line transform="rotate(117.894, 579, 140)" id="svg_3" stroke-linecap="round" stroke-opacity="0.8" stroke-width="20" stroke="#FFF" y2="280" x2="579" y1="0" x1="579"/>
  <path transform="rotate(15, 181.646, 227.9)" id="svg_4" d="m176.638,315.44357c-13.45963,-1.86914 -20.72972,-19.37521 -7.27806,-25.78125c14.02443,-6.32715 22.36612,16.18143 7.03996,18.37988c-8.39082,2.75 10.88969,7.3584 14.48358,2.73221c11.23195,-4.75174 9.49721,-17.1301 6.78638,-25.8457c-0.93332,-6.67477 -2.10316,-13.81833 -11.73114,-10.02246c-23.24394,1.62894 -41.63094,-18.98849 -39.78101,-38.27441c0.62131,-18.1904 17.65936,-30.65134 30.2838,-43.28734c-4.14333,-16.52516 -5.39595,-35.62109 6.60695,-50.01563c11.06914,-11.70898 16.67703,9.71413 18.54369,16.97585c4.15083,16.99414 -4.12628,34.85521 -17.91306,46.82907c1.31721,5.68631 2.60349,11.3721 3.95436,17.04785c14.56476,-2.45996 28.46637,8.31058 29.2603,20.91873c2.25963,11.38672 -6.09914,22.14282 -17.49551,27.04126c-0.20558,9.77927 5.98383,19.92358 3.75786,30.0246c-2.12886,10.44141 -15.52264,15.56543 -26.5181,13.27734l0,0zm15.20337,-44.5549c4.12627,-6.77463 -3.36488,-18.74142 -3.75786,-27.43942c0.14737,-15.17114 -18.24144,2.93262 -12.7718,10.38452c1.62103,4.40747 15.68661,12.4856 2.75835,7.50122c-13.49158,-7.06079 -12.87004,-25.24731 -0.54785,-32.92093c10.35686,-2.0051 4.04463,-14.08688 2.07974,-18.05392c-12.69812,10.13306 -27.11517,22.88791 -24.92172,39.29123c1.6456,15.36502 20.82001,24.69241 37.16115,21.2373zm8.56387,-2.93262c12.11662,-6.80685 11.70659,-24.66794 -1.55644,-30.20703c-14.14723,-6.54199 -4.45308,10.58792 -4.18291,17.10843c1.95694,2.49606 0.83508,17.04785 5.73935,13.0986zm-14.94978,-81.88402c7.45863,-7.89232 15.98932,-19.27904 10.74074,-29.71289c-11.28108,-6.50658 -17.52757,11.09668 -17.81435,18.80589c-0.11531,5.00198 -0.95789,22.22559 7.07361,10.907l0,0l0,0z" stroke-opacity="0.8" stroke-linecap="round" stroke-linejoin="null" stroke-dasharray="null" stroke-width="20" stroke="#FFF" fill="null"/>
 </g>
</svg>